<svg xmlns="http://www.w3.org/2000/svg" width="511.1" height="448" viewBox="0 0 511.1 448">
  <path id="film-solid" d="M463.1,32H47.1C21.49,32,0,53.49,0,80V432c0,26.51,21.49,48,47.1,48h416a48,48,0,0,0,48-48V80C511.1,53.49,490.5,32,463.1,32Zm-352,376a8,8,0,0,1-8,8h-48a8,8,0,0,1-8-8V360a8,8,0,0,1,8-8h47.1a8,8,0,0,1,8,8Zm0-128a8,8,0,0,1-8,8h-48a8,8,0,0,1-8-8V232a8,8,0,0,1,8-8h47.1a8,8,0,0,1,8,8v48Zm0-128a8,8,0,0,1-8,8h-48a8,8,0,0,1-8-8V104a8,8,0,0,1,8-8h47.1a8,8,0,0,1,8,8Zm240,248a16,16,0,0,1-16,16h-160a16,16,0,0,1-16-16V304a16,16,0,0,1,16-16h160a16,16,0,0,1,16,16Zm0-192a16,16,0,0,1-16,16h-160a16,16,0,0,1-16-16V112a16,16,0,0,1,16-16h160a16,16,0,0,1,16,16Zm112,200a8,8,0,0,1-8,8H408c-4.418,0-7.1-3.582-7.1-8V360a8,8,0,0,1,8-8H456a8,8,0,0,1,8,8v48Zm0-128a8,8,0,0,1-8,8H408a8,8,0,0,1-8-8V232a8,8,0,0,1,8-8h47.1a8,8,0,0,1,8,8Zm0-128a8,8,0,0,1-8,8H408a8,8,0,0,1-8-8V104c0-4.418,3.582-8,7.1-8h47.1a8,8,0,0,1,8,8v48Z" transform="translate(0 -32)" fill="#6a76ff"/>
</svg>
