<svg xmlns="http://www.w3.org/2000/svg" xmlns:xlink="http://www.w3.org/1999/xlink" width="511.998" height="512.055" viewBox="0 0 511.998 512.055">
  <defs>
    <linearGradient id="linear-gradient" x1="0.5" x2="0.5" y2="1" gradientUnits="objectBoundingBox">
      <stop offset="0" stop-color="#7484ff"/>
      <stop offset="1" stop-color="#e74ffc"/>
    </linearGradient>
  </defs>
  <path id="magnifying-glass-solid" d="M500.3,443.7,380.6,324c27.22-40.41,40.65-90.9,33.46-144.7C401.8,87.79,326.8,13.32,235.2,1.723A208.172,208.172,0,0,0,1.724,235.2c11.6,91.64,86.08,166.7,177.6,178.9,53.8,7.189,104.3-6.236,144.7-33.46l119.7,119.7A40.028,40.028,0,0,0,500.3,443.7ZM79.1,208a128,128,0,1,1,128,128A128.144,128.144,0,0,1,79.1,208Z" transform="translate(-0.001 0)" fill="url(#linear-gradient)"/>
</svg>
