<svg xmlns="http://www.w3.org/2000/svg" width="515.25" height="515.25" viewBox="0 0 515.25 515.25">
  <path id="Icon_awesome-sync" data-name="Icon awesome-sync" d="M443.448,12.65l4.025,83.3A248.729,248.729,0,0,0,257.454,8.051c-121.869,0-223.329,87.472-245.086,203.1a12.076,12.076,0,0,0,11.875,14.27H73.6A12.076,12.076,0,0,0,85.348,216.1a177.027,177.027,0,0,1,319.013-57.3l-102.1-4.891a12.076,12.076,0,0,0-12.65,12.076V213.7a12.076,12.076,0,0,0,12.076,12.076H503.174A12.076,12.076,0,0,0,515.25,213.7V12.076A12.076,12.076,0,0,0,503.174,0H455.5a12.076,12.076,0,0,0-12.056,12.65ZM257.454,434.743a176.725,176.725,0,0,1-146.927-78.294l102.446,4.9a12.076,12.076,0,0,0,12.65-12.076v-47.7A12.076,12.076,0,0,0,213.547,289.5H12.076A12.076,12.076,0,0,0,0,301.572v201.6A12.076,12.076,0,0,0,12.076,515.25H59.727A12.076,12.076,0,0,0,71.8,502.57l-4.176-83.094A248.739,248.739,0,0,0,257.454,507.2c121.879,0,223.339-87.472,245.1-203.1a12.076,12.076,0,0,0-11.875-14.27H441.314a12.076,12.076,0,0,0-11.744,9.319,176.976,176.976,0,0,1-172.116,135.6Z" fill="#fff"/>
</svg>
